# xmcd CD database file
#
# Track frame offsets:
#	150
#	21330
#	49712
#	68640
#	96855
#	119095
#	142322
#	165077
#	186207
#	210785
#	233512
#
# Disc length: 3439 seconds
#
# Revision: 2
# Processed by: cddbd v1.5.2PL0 Copyright (c) Steve Scherf et al.
# Submitted via: CDex 1.70beta2
#
DISCID=900d6d0b
DTITLE=世良正則 - Do (動)
DYEAR=1900
DGENRE=Rock and Roll
TTITLE0=PASSION
TTITLE1=Do it !!
TTITLE2=NEVER
TTITLE3=愛してるよ
TTITLE4=あと2分の永遠
TTITLE5=絆
TTITLE6=MISSIN' YOU
TTITLE7=優
TTITLE8=別れの朝
TTITLE9=鼓動
TTITLE10=そっと…Kissを、
EXTD=
EXTT0=
EXTT1=
EXTT2=
EXTT3=
EXTT4=
EXTT5=
EXTT6=
EXTT7=
EXTT8=
EXTT9=
EXTT10=
PLAYORDER=
